<?xml version="1.0" encoding="utf-8"?>
<svg xmlnsdc="http://purl.org/dc/elements/1.1/" xmlnscc="http://creativecommons.org/ns#" xmlnsrdf="http://www.w3.org/1999/02/22-rdf-syntax-ns#" xmlnssvg="http://www.w3.org/2000/svg" xmlnsxlink="http://www.w3.org/1999/xlink" xmlnssodipodi="http://sodipodi.sourceforge.net/DTD/sodipodi-0.dtd" xmlnsinkscape="http://www.inkscape.org/namespaces/inkscape" width="167.0869141pt" height="242.6669922pt" viewBox="0 0 167.0869141 242.6669922" xmlspace="preserve" id="svg2" version="1.1" inkscapeversion="0.48.0 r9654" sodipodidocname="A_of_diamonds.svg" inkscapeexport-filename="/home/byron/art/cards/final/PNGs/A_of_diamonds.png" inkscapeexport-xdpi="215.44792" inkscapeexport-ydpi="215.44792" xmlns="http://www.w3.org/2000/svg">
  <defs id="defs41">
    <filter color-interpolation-filters="sRGB" inkscapecollect="always" id="filter3834-6-0" x="-0.13934441" width="1.2786888" y="-0.16242018" height="1.3248404">
      <feGaussianBlur inkscapecollect="always" stdDeviation="9.5105772" id="feGaussianBlur3836-6-6"/>
    </filter>
    <radialGradient r="81.902771" cy="511.22299" cx="171.48665" gradientTransform="matrix(1.1529891,-0.67391547,0.39482025,0.67549043,-233.63262,270.40076)" gradientUnits="userSpaceOnUse" id="radialGradient3100" xlinkhref="#linearGradient3784-4-4" inkscapecollect="always"/>
  </defs>
  <g id="Layer_x0020_1" style="fill-rule:nonzero;clip-rule:nonzero;stroke:#df0000;stroke-miterlimit:4;">
    <path style="fill:#FFFFFF;stroke-width:0.5;" d="M166.8369141,235.5478516c0,3.7773438-3.0869141,6.8691406-6.8710938,6.8691406H7.1108398c-3.7749023,0-6.8608398-3.0917969-6.8608398-6.8691406V7.1201172C0.25,3.3427734,3.3359375,0.25,7.1108398,0.25h152.8549805    c3.7841797,0,6.8710938,3.0927734,6.8710938,6.8701172v228.4277344z" id="path5"/>
    <g style="stroke:none;" id="g7">
      <g id="g9"/>
    </g>
    <g id="g15"/>
    <g id="g19"/>
    <g style="stroke:none;" id="g23">
      <g id="g25"/>
    </g>
    <g style="stroke:none;" id="g31">
      <g id="g33"/>
    </g>
  </g>
  <text xmlspace="preserve" style="font-size: 32px; font-style: normal; font-weight: normal; line-height: 125%; letter-spacing: 0px; word-spacing: 0px; fill: rgb(223, 0, 0); fill-opacity: 1; stroke: none; font-family: &quot;Bitstream Vera Sans&quot;; white-space: pre;" x="6.2456665" y="28.013288" id="text3788" sodipodilinespacing="125%"><tspan sodipodirole="line" id="tspan3790" x="6.2456665" y="28.013288" style="font-style:normal;font-variant:normal;font-weight:normal;font-stretch:normal;font-family:Arial;-inkscape-font-specification:Arial;fill:#df0000;fill-opacity:1">A</tspan></text>
  <text xmlspace="preserve" style="font-size: 32px; font-style: normal; font-weight: normal; line-height: 125%; letter-spacing: 0px; word-spacing: 0px; fill: rgb(223, 0, 0); fill-opacity: 1; stroke: none; font-family: &quot;Bitstream Vera Sans&quot;; white-space: pre;" x="-161.08786" y="-213.51517" id="text3788-4" sodipodilinespacing="125%" transform="scale(-1,-1)"><tspan sodipodirole="line" id="tspan3790-3" x="-161.08786" y="-213.51517" style="font-style:normal;font-variant:normal;font-weight:normal;font-stretch:normal;fill:#df0000;fill-opacity:1;font-family:Arial;-inkscape-font-specification:Arial">A</tspan></text>
  <g transform="matrix(0.17001436,0,0,0.17001436,19.517107,29.794341)" id="g3011">
    <g id="layer1-2" transform="matrix(35.005102,0,0,35.005102,369.18369,512.27289)">
      <path sodipodinodetypes="ccccccccc" d="M 3.2433274,-4.7253274 C 1.1263274,-7.5893274 0,-10.5 0,-10.5 c 0,0 -1.1263274,2.9106726 -3.2433274,5.7746726 C -5.3613274,-1.8623274 -8,0 -8,0 -8,0 -5.3613274,1.8613274 -3.2433274,4.7263274 -1.1263274,7.5893274 0,10.5 0,10.5 0,10.5 1.1263274,7.5893274 3.2433274,4.7263274 5.3613274,1.8613274 8,0 8,0 8,0 5.3613274,-1.8623274 3.2433274,-4.7253274 z" id="dl" inkscapeconnector-curvature="0" style="fill-opacity: 1; fill: rgb(223, 0, 0);"/>
    </g>
    <path transform="matrix(-1.4652123,0.23694327,-0.24538129,-1.5173914,660.30624,1148.701)" sodipodinodetypes="cscsc" inkscapeconnector-curvature="0" id="path3762-6" d="m 117.3013,604.26609 c 0,0 -8.06755,-94.94997 22.85715,-122.85714 34.76052,-31.36871 140,-11.42857 140,-11.42857 0,0 -71.5404,24.83762 -100,48.57143 -27.21033,22.69199 -62.85715,85.71428 -62.85715,85.71428 z" style="fill:url(#radialGradient3100);fill-opacity:1;stroke:none;filter:url(#filter3834-6-0)"/>
  </g>
  <g transform="matrix(1.4769065,0,0,1.4769065,16.968095,44.236162)" id="layer1-2-6">
    <path style="fill:#df0000" inkscapeconnector-curvature="0" id="dl-6" d="M 3.2433274,-4.7253274 C 1.1263274,-7.5893274 0,-10.5 0,-10.5 c 0,0 -1.1263274,2.9106726 -3.2433274,5.7746726 C -5.3613274,-1.8623274 -8,0 -8,0 -8,0 -5.3613274,1.8613274 -3.2433274,4.7263274 -1.1263274,7.5893274 0,10.5 0,10.5 0,10.5 1.1263274,7.5893274 3.2433274,4.7263274 5.3613274,1.8613274 8,0 8,0 8,0 5.3613274,-1.8623274 3.2433274,-4.7253274 z" sodipodinodetypes="ccccccccc"/>
  </g>
  <g transform="matrix(1.4769065,0,0,1.4769065,150.62089,198.50346)" id="layer1-2-6-4">
    <path style="fill:#df0000" inkscapeconnector-curvature="0" id="dl-6-9" d="M 3.2433274,-4.7253274 C 1.1263274,-7.5893274 0,-10.5 0,-10.5 c 0,0 -1.1263274,2.9106726 -3.2433274,5.7746726 C -5.3613274,-1.8623274 -8,0 -8,0 -8,0 -5.3613274,1.8613274 -3.2433274,4.7263274 -1.1263274,7.5893274 0,10.5 0,10.5 0,10.5 1.1263274,7.5893274 3.2433274,4.7263274 5.3613274,1.8613274 8,0 8,0 8,0 5.3613274,-1.8623274 3.2433274,-4.7253274 z" sodipodinodetypes="ccccccccc"/>
  </g>
</svg>